<svg width="40" height="40" viewBox="0 0 40 40" fill="none" xmlns="http://www.w3.org/2000/svg">
<g id="material-symbols:left-panel-close-rounded">
<path id="Vector" d="M27.5 24.6667V15.3333C27.5 14.9444 27.3333 14.6806 27 14.5417C26.6667 14.4028 26.3611 14.4722 26.0833 14.75L22 18.8333C21.6667 19.1667 21.5 19.5556 21.5 20C21.5 20.4444 21.6667 20.8333 22 21.1667L26.0833 25.25C26.3611 25.5278 26.6667 25.5972 27 25.4583C27.3333 25.3194 27.5 25.0556 27.5 24.6667ZM8.33333 35C7.41667 35 6.63222 34.6739 5.98 34.0217C5.32778 33.3694 5.00111 32.5844 5 31.6667V8.33333C5 7.41667 5.32667 6.63222 5.98 5.98C6.63333 5.32778 7.41778 5.00111 8.33333 5H31.6667C32.5833 5 33.3683 5.32667 34.0217 5.98C34.675 6.63333 35.0011 7.41778 35 8.33333V31.6667C35 32.5833 34.6739 33.3683 34.0217 34.0217C33.3694 34.675 32.5844 35.0011 31.6667 35H8.33333ZM16.6667 31.6667H31.6667V8.33333H16.6667V31.6667Z" fill="#ECDFCC"/>
</g>
</svg>
